<svg width="111" height="41" viewBox="0 0 111 41" fill="none" xmlns="http://www.w3.org/2000/svg">
<path d="M39.888 19.624C39.888 17.992 40.264 16.528 41.016 15.232C41.784 13.936 42.816 12.928 44.112 12.208C45.424 11.472 46.856 11.104 48.408 11.104C50.184 11.104 51.76 11.544 53.136 12.424C54.528 13.288 55.536 14.52 56.16 16.12H52.872C52.44 15.24 51.84 14.584 51.072 14.152C50.304 13.72 49.416 13.504 48.408 13.504C47.304 13.504 46.32 13.752 45.456 14.248C44.592 14.744 43.912 15.456 43.416 16.384C42.936 17.312 42.696 18.392 42.696 19.624C42.696 20.856 42.936 21.936 43.416 22.864C43.912 23.792 44.592 24.512 45.456 25.024C46.32 25.52 47.304 25.768 48.408 25.768C49.416 25.768 50.304 25.552 51.072 25.12C51.84 24.688 52.44 24.032 52.872 23.152H56.16C55.536 24.752 54.528 25.984 53.136 26.848C51.76 27.712 50.184 28.144 48.408 28.144C46.84 28.144 45.408 27.784 44.112 27.064C42.816 26.328 41.784 25.312 41.016 24.016C40.264 22.72 39.888 21.256 39.888 19.624ZM71.4825 21.064C71.4825 21.56 71.4505 22.008 71.3865 22.408H61.2825C61.3625 23.464 61.7545 24.312 62.4585 24.952C63.1625 25.592 64.0265 25.912 65.0505 25.912C66.5225 25.912 67.5625 25.296 68.1705 24.064H71.1225C70.7225 25.28 69.9945 26.28 68.9385 27.064C67.8985 27.832 66.6025 28.216 65.0505 28.216C63.7865 28.216 62.6505 27.936 61.6425 27.376C60.6505 26.8 59.8665 26 59.2905 24.976C58.7305 23.936 58.4505 22.736 58.4505 21.376C58.4505 20.016 58.7225 18.824 59.2665 17.8C59.8265 16.76 60.6025 15.96 61.5945 15.4C62.6025 14.84 63.7545 14.56 65.0505 14.56C66.2985 14.56 67.4105 14.832 68.3865 15.376C69.3625 15.92 70.1225 16.688 70.6665 17.68C71.2105 18.656 71.4825 19.784 71.4825 21.064ZM68.6265 20.2C68.6105 19.192 68.2505 18.384 67.5465 17.776C66.8425 17.168 65.9705 16.864 64.9305 16.864C63.9865 16.864 63.1785 17.168 62.5065 17.776C61.8345 18.368 61.4345 19.176 61.3065 20.2H68.6265ZM78.975 28.216C77.935 28.216 76.999 28.032 76.167 27.664C75.351 27.28 74.703 26.768 74.223 26.128C73.743 25.472 73.487 24.744 73.455 23.944H76.287C76.335 24.504 76.599 24.976 77.079 25.36C77.575 25.728 78.191 25.912 78.927 25.912C79.695 25.912 80.287 25.768 80.703 25.48C81.135 25.176 81.351 24.792 81.351 24.328C81.351 23.832 81.111 23.464 80.631 23.224C80.167 22.984 79.423 22.72 78.399 22.432C77.407 22.16 76.599 21.896 75.975 21.64C75.351 21.384 74.807 20.992 74.343 20.464C73.895 19.936 73.671 19.24 73.671 18.376C73.671 17.672 73.879 17.032 74.295 16.456C74.711 15.864 75.303 15.4 76.071 15.064C76.855 14.728 77.751 14.56 78.759 14.56C80.263 14.56 81.471 14.944 82.383 15.712C83.311 16.464 83.807 17.496 83.871 18.808H81.135C81.087 18.216 80.847 17.744 80.415 17.392C79.983 17.04 79.399 16.864 78.663 16.864C77.943 16.864 77.391 17 77.007 17.272C76.623 17.544 76.431 17.904 76.431 18.352C76.431 18.704 76.559 19 76.815 19.24C77.071 19.48 77.383 19.672 77.751 19.816C78.119 19.944 78.663 20.112 79.383 20.32C80.343 20.576 81.127 20.84 81.735 21.112C82.359 21.368 82.895 21.752 83.343 22.264C83.791 22.776 84.023 23.456 84.039 24.304C84.039 25.056 83.831 25.728 83.415 26.32C82.999 26.912 82.407 27.376 81.639 27.712C80.887 28.048 79.999 28.216 78.975 28.216ZM86.0833 21.328C86.0833 20 86.3553 18.824 86.8993 17.8C87.4593 16.776 88.2113 15.984 89.1553 15.424C90.1153 14.848 91.1713 14.56 92.3233 14.56C93.3633 14.56 94.2673 14.768 95.0353 15.184C95.8193 15.584 96.4433 16.088 96.9073 16.696V14.776H99.6673V28H96.9073V26.032C96.4433 26.656 95.8113 27.176 95.0113 27.592C94.2113 28.008 93.2993 28.216 92.2753 28.216C91.1393 28.216 90.0993 27.928 89.1553 27.352C88.2113 26.76 87.4593 25.944 86.8993 24.904C86.3553 23.848 86.0833 22.656 86.0833 21.328ZM96.9073 21.376C96.9073 20.464 96.7153 19.672 96.3313 19C95.9633 18.328 95.4753 17.816 94.8673 17.464C94.2593 17.112 93.6033 16.936 92.8993 16.936C92.1953 16.936 91.5393 17.112 90.9313 17.464C90.3233 17.8 89.8273 18.304 89.4433 18.976C89.0753 19.632 88.8913 20.416 88.8913 21.328C88.8913 22.24 89.0753 23.04 89.4433 23.728C89.8273 24.416 90.3233 24.944 90.9313 25.312C91.5553 25.664 92.2113 25.84 92.8993 25.84C93.6033 25.84 94.2593 25.664 94.8673 25.312C95.4753 24.96 95.9633 24.448 96.3313 23.776C96.7153 23.088 96.9073 22.288 96.9073 21.376ZM105.997 16.696C106.397 16.024 106.925 15.504 107.581 15.136C108.253 14.752 109.045 14.56 109.957 14.56V17.392H109.261C108.189 17.392 107.373 17.664 106.813 18.208C106.269 18.752 105.997 19.696 105.997 21.04V28H103.261V14.776H105.997V16.696Z" fill="#1E255E"/>
<rect y="5" width="30" height="30" rx="6" fill="#17A4D0"/>
<path d="M11.872 22.784L6.352 17.336L11.872 11.888H15.328L9.784 17.336L15.328 22.784H11.872Z" fill="#1E255E"/>
<path d="M14.688 16.888H18.144L23.664 22.336L18.144 27.784H14.688L20.232 22.336L14.688 16.888Z" fill="white"/>
</svg>
